<svg xmlns="http://www.w3.org/2000/svg" width="396.436" height="134.417" viewBox="0 0 396.436 134.417"><g transform="translate(-23.243 -23.244)"><path d="M48.8,78.617a2.227,2.227,0,1,1,0-4.455V50.834a25.556,25.556,0,0,0,0,51.112Z" fill="#fc4128"/><path d="M118.67,129.729a25.557,25.557,0,0,0,0-51.113v23.33a2.228,2.228,0,0,1,0,4.455Z" fill="#fc4128"/><rect width="69.864" height="23.328" transform="translate(48.8 106.401)" fill="#6550a3"/><rect width="69.864" height="23.329" transform="translate(48.799 78.617)" fill="#6550a3"/><rect width="69.864" height="23.328" transform="translate(48.799 50.834)" fill="#6550a3"/><path d="M23.244,131.958h0v13.7a11.664,11.664,0,1,0,23.328,0v-13.7a2.233,2.233,0,0,1,2.227-2.231V106.4A25.586,25.586,0,0,0,23.244,131.958Z" fill="#80c41c"/><path d="M144.141,62.427a11.663,11.663,0,0,0-11.664-11.664c-.316,0-.628.022-.938.047H118.663V74.162H132.73v-.084A11.657,11.657,0,0,0,144.141,62.427Z" fill="#80c41c"/><path d="M144.225,34.908a11.664,11.664,0,1,0-11.664,11.665A11.664,11.664,0,0,0,144.225,34.908Z" fill="#80c41c"/><path d="M1.4-21.076H9.281v3H4.437v6.037H8.6v3.008H4.437V0H1.4ZM19.638,0V-21.076h3.04V-3h4.845V0ZM37.665-21.076H45.55v3H40.705v6.037h4.168v3.008H40.705V-3H45.55V0H37.665Zm3.856-.816H39.835l1.525-2.718h2.385Zm14.6.816h4.426q4.05.011,4.05,4.437v3.169a3.523,3.523,0,0,1-2.4,3.663L65.618,0h-3.33L59.549-9.271l-.387.054V0h-3.04Zm3.04,3v6.037h.7a2.935,2.935,0,0,0,.87-.086,1.3,1.3,0,0,0,.827-1.343V-16.64q0-1.439-1.321-1.439ZM84.171-4.093Q84.171.333,79.8.344T75.438-4.093V-16.983q0-4.426,4.361-4.426t4.372,4.426Zm-3.04-12.891q0-1.418-1.321-1.429h-.021q-1.311,0-1.311,1.429V-4.093q0,1.429,1.321,1.429t1.332-1.429Zm13.934-4.093h3.04l2.879,12.225V-21.076H103.8V0h-3.04L97.987-11.838V0H95.065Z" transform="translate(202.788 157.317)" fill="#6550a3"/><text transform="translate(154.765 63.913)" font-size="24" font-family="Aller-Light, Aller Light" font-weight="300" letter-spacing="0.019em"><tspan x="0" y="0">Institut d&apos;Enseignement</tspan></text><text transform="translate(154.464 88.253)" font-size="24" font-family="Aller" letter-spacing="0.071em"><tspan x="0" y="0">de Promotion Sociale</tspan></text><text transform="translate(155.679 112.919)" font-size="24" font-family="Aller-Light, Aller Light" font-weight="300" letter-spacing="-0.068em"><tspan x="0" y="0">de la Féd. Wallonie-Bruxelles</tspan></text></g></svg>